<svg
  xmlns="http://www.w3.org/2000/svg"
  aria-hidden="true"
  focusable="false"
  viewBox="0 0 1024 1024"
  width="20"
  height="20"
>
  <path d="M920 416h-304a8 8 0 0 0-8 8v112a8 8 0 0 0 8 8h48a8 8 0 0 0 8-8V480h60.032v320h-46.016a8 8 0 0 0-8 8v48a8 8 0 0 0 8 8h164.032a8 8 0 0 0 8-8v-48a8 8 0 0 0-8-8h-46.016v-320h59.968v56a8 8 0 0 0 8 8h48a8 8 0 0 0 8-8v-112a8 8 0 0 0-8-8zM656 296v-128a8 8 0 0 0-8-8h-544a8 8 0 0 0-8 8v128a8 8 0 0 0 8 8H160a8 8 0 0 0 8-8v-64H336v560H244.032a8 8 0 0 0-8 8v56a8 8 0 0 0 8 8h264a8 8 0 0 0 8-8V800a8 8 0 0 0-8-8H416v-560h168v64a8 8 0 0 0 8 8h56a8 8 0 0 0 8-8z"></path>
</svg>
